<svg width="1995" height="612" viewBox="0 0 1995 612" fill="none" xmlns="http://www.w3.org/2000/svg">
<g clip-path="url(#clip0_1204_41)">
<path d="M14.3335 181C47.4856 181 79.2799 194.17 102.722 217.612C126.164 241.054 139.334 272.848 139.334 306C139.334 339.152 126.164 370.946 102.722 394.388C79.2799 417.83 47.4856 431 14.3335 431V514.333C14.3335 536.434 23.1132 557.63 38.7413 573.258C54.3693 588.887 75.5655 597.666 97.6669 597.666H764.334C786.436 597.666 807.632 588.887 823.26 573.258C838.888 557.63 847.668 536.434 847.668 514.333V431C814.516 431 782.722 417.83 759.279 394.388C735.837 370.946 722.668 339.152 722.668 306C722.668 272.848 735.837 241.054 759.279 217.612C782.722 194.17 814.516 181 847.668 181V97.6667C847.668 75.5654 838.888 54.3693 823.26 38.7412C807.632 23.1132 786.436 14.3335 764.334 14.3335H97.6669C75.5655 14.3335 54.3693 23.1132 38.7413 38.7412C23.1132 54.3693 14.3335 75.5654 14.3335 97.6667V181Z" fill="#DAE2FF" stroke="#3D5AFE" stroke-width="27" stroke-linecap="round" stroke-linejoin="round"/>
<path opacity="0.989" fill-rule="evenodd" clip-rule="evenodd" d="M295.191 162.738C333.574 162.923 361.211 180.11 378.102 214.301C382.542 224.786 384.886 235.723 385.133 247.113C385.426 257.463 385.524 267.814 385.426 278.168C397.842 278.95 405.361 285.395 407.984 297.504C408.375 341.449 408.375 385.395 407.984 429.34C405.795 440.513 399.057 446.861 387.77 448.383C328.395 448.774 269.019 448.774 209.645 448.383C198.357 446.861 191.619 440.513 189.43 429.34C189.039 385.395 189.039 341.449 189.43 297.504C192.527 284.86 200.633 278.415 213.746 278.168C213.648 266.057 213.746 253.948 214.039 241.84C218.87 203.35 239.67 178.057 276.441 165.961C282.7 164.43 288.95 163.356 295.191 162.738ZM295.777 200.824C324.08 201.297 341.17 215.36 347.047 243.012C347.34 254.729 347.438 266.447 347.34 278.168C315.504 278.168 283.668 278.168 251.832 278.168C251.734 266.643 251.832 255.12 252.125 243.598C255.144 224.759 265.398 211.575 282.887 204.047C287.171 202.585 291.468 201.511 295.777 200.824ZM294.605 331.488C309.933 330.248 318.527 337.181 320.387 352.289C320.294 359.8 317.071 365.561 310.719 369.574C310.524 370.16 310.328 370.746 310.133 371.332C309.938 382.27 309.742 393.207 309.547 404.145C305.969 410.61 300.793 412.27 294.02 409.125C292.301 407.798 291.031 406.138 290.211 404.145C289.459 392.846 289.068 381.519 289.039 370.16C277.698 361.543 275.745 351.192 283.18 339.105C286.412 335.593 290.22 333.054 294.605 331.488Z" fill="#3D5AFE"/>
<rect x="458" y="225" width="219" height="27" rx="10" fill="#3D5AFE"/>
<rect x="458" y="385" width="219" height="27" rx="10" fill="#3D5AFE"/>
<rect x="458" y="305" width="219" height="27" rx="10" fill="#3D5AFE"/>
<path d="M1139.64 250V104.545H1197.88C1208.58 104.545 1217.51 106.132 1224.66 109.304C1231.81 112.476 1237.18 116.88 1240.78 122.514C1244.38 128.101 1246.18 134.541 1246.18 141.832C1246.18 147.514 1245.04 152.509 1242.77 156.818C1240.49 161.08 1237.37 164.583 1233.39 167.33C1229.46 170.028 1224.96 171.946 1219.9 173.082V174.503C1225.44 174.74 1230.62 176.302 1235.45 179.19C1240.33 182.079 1244.28 186.127 1247.31 191.335C1250.34 196.496 1251.86 202.652 1251.86 209.801C1251.86 217.519 1249.94 224.408 1246.11 230.469C1242.32 236.482 1236.71 241.241 1229.27 244.744C1221.84 248.248 1212.68 250 1201.79 250H1139.64ZM1170.39 224.858H1195.47C1204.04 224.858 1210.29 223.224 1214.22 219.957C1218.15 216.643 1220.11 212.24 1220.11 206.747C1220.11 202.723 1219.14 199.171 1217.2 196.094C1215.26 193.016 1212.49 190.601 1208.89 188.849C1205.34 187.098 1201.1 186.222 1196.18 186.222H1170.39V224.858ZM1170.39 165.412H1193.19C1197.41 165.412 1201.15 164.678 1204.41 163.21C1207.73 161.695 1210.33 159.564 1212.23 156.818C1214.17 154.072 1215.14 150.781 1215.14 146.946C1215.14 141.69 1213.27 137.453 1209.53 134.233C1205.84 131.013 1200.58 129.403 1193.76 129.403H1170.39V165.412ZM1271.3 250V140.909H1301.56V250H1271.3ZM1286.5 126.847C1282 126.847 1278.14 125.355 1274.92 122.372C1271.75 119.342 1270.16 115.72 1270.16 111.506C1270.16 107.339 1271.75 103.764 1274.92 100.781C1278.14 97.7509 1282 96.2358 1286.5 96.2358C1291 96.2358 1294.83 97.7509 1298 100.781C1301.22 103.764 1302.83 107.339 1302.83 111.506C1302.83 115.72 1301.22 119.342 1298 122.372C1294.83 125.355 1291 126.847 1286.5 126.847ZM1356.05 104.545V250H1325.79V104.545H1356.05ZM1410.54 104.545V250H1380.28V104.545H1410.54ZM1484.49 252.131C1473.27 252.131 1463.61 249.858 1455.52 245.312C1447.47 240.72 1441.26 234.233 1436.91 225.852C1432.55 217.424 1430.37 207.457 1430.37 195.952C1430.37 184.73 1432.55 174.882 1436.91 166.406C1441.26 157.931 1447.4 151.326 1455.3 146.591C1463.26 141.856 1472.58 139.489 1483.29 139.489C1490.48 139.489 1497.18 140.649 1503.38 142.969C1509.63 145.241 1515.08 148.674 1519.72 153.267C1524.41 157.86 1528.05 163.636 1530.66 170.597C1533.26 177.509 1534.56 185.606 1534.56 194.886V203.196H1442.45V184.446H1506.08C1506.08 180.09 1505.14 176.231 1503.24 172.869C1501.35 169.508 1498.72 166.88 1495.36 164.986C1492.04 163.045 1488.19 162.074 1483.78 162.074C1479.19 162.074 1475.12 163.139 1471.57 165.27C1468.06 167.353 1465.32 170.17 1463.33 173.722C1461.34 177.225 1460.32 181.132 1460.27 185.44V203.267C1460.27 208.665 1461.27 213.329 1463.26 217.259C1465.29 221.188 1468.16 224.219 1471.85 226.349C1475.54 228.48 1479.92 229.545 1484.99 229.545C1488.35 229.545 1491.43 229.072 1494.22 228.125C1497.02 227.178 1499.41 225.758 1501.4 223.864C1503.38 221.97 1504.9 219.65 1505.94 216.903L1533.92 218.75C1532.5 225.473 1529.59 231.345 1525.19 236.364C1520.83 241.335 1515.2 245.218 1508.29 248.011C1501.42 250.758 1493.49 252.131 1484.49 252.131ZM1612.33 140.909V163.636H1546.64V140.909H1612.33ZM1561.55 114.773H1591.81V216.477C1591.81 219.271 1592.23 221.449 1593.09 223.011C1593.94 224.527 1595.12 225.592 1596.64 226.207C1598.2 226.823 1600 227.131 1602.04 227.131C1603.46 227.131 1604.88 227.012 1606.3 226.776C1607.72 226.491 1608.81 226.278 1609.56 226.136L1614.32 248.651C1612.81 249.124 1610.68 249.669 1607.93 250.284C1605.18 250.947 1601.85 251.349 1597.92 251.491C1590.62 251.776 1584.23 250.805 1578.74 248.58C1573.29 246.354 1569.06 242.898 1566.03 238.21C1563 233.523 1561.51 227.604 1561.55 220.455V114.773ZM1680.59 252.131C1669.37 252.131 1659.71 249.858 1651.61 245.312C1643.56 240.72 1637.36 234.233 1633 225.852C1628.65 217.424 1626.47 207.457 1626.47 195.952C1626.47 184.73 1628.65 174.882 1633 166.406C1637.36 157.931 1643.49 151.326 1651.4 146.591C1659.35 141.856 1668.68 139.489 1679.38 139.489C1686.58 139.489 1693.28 140.649 1699.48 142.969C1705.73 145.241 1711.17 148.674 1715.81 153.267C1720.5 157.86 1724.15 163.636 1726.75 170.597C1729.36 177.509 1730.66 185.606 1730.66 194.886V203.196H1638.54V184.446H1702.18C1702.18 180.09 1701.23 176.231 1699.34 172.869C1697.44 169.508 1694.81 166.88 1691.45 164.986C1688.14 163.045 1684.28 162.074 1679.88 162.074C1675.28 162.074 1671.21 163.139 1667.66 165.27C1664.16 167.353 1661.41 170.17 1659.42 173.722C1657.43 177.225 1656.42 181.132 1656.37 185.44V203.267C1656.37 208.665 1657.36 213.329 1659.35 217.259C1661.39 221.188 1664.25 224.219 1667.94 226.349C1671.64 228.48 1676.02 229.545 1681.08 229.545C1684.45 229.545 1687.52 229.072 1690.32 228.125C1693.11 227.178 1695.5 225.758 1697.49 223.864C1699.48 221.97 1700.99 219.65 1702.04 216.903L1730.02 218.75C1728.6 225.473 1725.69 231.345 1721.28 236.364C1716.93 241.335 1711.29 245.218 1704.38 248.011C1697.51 250.758 1689.58 252.131 1680.59 252.131ZM1750.4 250V140.909H1779.73V159.943H1780.87C1782.86 153.172 1786.2 148.059 1790.88 144.602C1795.57 141.098 1800.97 139.347 1807.08 139.347C1808.59 139.347 1810.23 139.441 1811.98 139.631C1813.73 139.82 1815.27 140.08 1816.6 140.412V167.259C1815.17 166.832 1813.21 166.454 1810.7 166.122C1808.19 165.791 1805.89 165.625 1803.81 165.625C1799.36 165.625 1795.38 166.596 1791.88 168.537C1788.42 170.431 1785.68 173.082 1783.64 176.491C1781.65 179.901 1780.66 183.83 1780.66 188.281V250H1750.4ZM1832.24 250V140.909H1862.49V250H1832.24ZM1847.44 126.847C1842.94 126.847 1839.08 125.355 1835.86 122.372C1832.69 119.342 1831.1 115.72 1831.1 111.506C1831.1 107.339 1832.69 103.764 1835.86 100.781C1839.08 97.7509 1842.94 96.2358 1847.44 96.2358C1851.93 96.2358 1855.77 97.7509 1858.94 100.781C1862.16 103.764 1863.77 107.339 1863.77 111.506C1863.77 115.72 1862.16 119.342 1858.94 122.372C1855.77 125.355 1851.93 126.847 1847.44 126.847ZM1936.45 252.131C1925.22 252.131 1915.57 249.858 1907.47 245.312C1899.42 240.72 1893.22 234.233 1888.86 225.852C1884.5 217.424 1882.33 207.457 1882.33 195.952C1882.33 184.73 1884.5 174.882 1888.86 166.406C1893.22 157.931 1899.35 151.326 1907.26 146.591C1915.21 141.856 1924.54 139.489 1935.24 139.489C1942.44 139.489 1949.14 140.649 1955.34 142.969C1961.59 145.241 1967.03 148.674 1971.67 153.267C1976.36 157.86 1980.01 163.636 1982.61 170.597C1985.21 177.509 1986.52 185.606 1986.52 194.886V203.196H1894.4V184.446H1958.04C1958.04 180.09 1957.09 176.231 1955.2 172.869C1953.3 169.508 1950.67 166.88 1947.31 164.986C1944 163.045 1940.14 162.074 1935.74 162.074C1931.14 162.074 1927.07 163.139 1923.52 165.27C1920.02 167.353 1917.27 170.17 1915.28 173.722C1913.29 177.225 1912.27 181.132 1912.23 185.44V203.267C1912.23 208.665 1913.22 213.329 1915.21 217.259C1917.25 221.188 1920.11 224.219 1923.8 226.349C1927.5 228.48 1931.88 229.545 1936.94 229.545C1940.3 229.545 1943.38 229.072 1946.18 228.125C1948.97 227.178 1951.36 225.758 1953.35 223.864C1955.34 221.97 1956.85 219.65 1957.89 216.903L1985.88 218.75C1984.46 225.473 1981.55 231.345 1977.14 236.364C1972.79 241.335 1967.15 245.218 1960.24 248.011C1953.37 250.758 1945.44 252.131 1936.45 252.131Z" fill="#3D5AFE"/>
<path d="M1405.88 360.545H1436.28V461.966C1436.28 471.341 1434.17 479.485 1429.96 486.398C1425.79 493.311 1419.99 498.637 1412.56 502.378C1405.12 506.118 1396.48 507.989 1386.63 507.989C1377.87 507.989 1369.92 506.45 1362.77 503.372C1355.67 500.247 1350.03 495.512 1345.87 489.168C1341.7 482.776 1339.64 474.75 1339.69 465.091H1370.3C1370.39 468.926 1371.17 472.217 1372.64 474.963C1374.16 477.662 1376.22 479.745 1378.82 481.213C1381.47 482.634 1384.6 483.344 1388.2 483.344C1391.98 483.344 1395.18 482.539 1397.78 480.929C1400.44 479.272 1402.45 476.857 1403.82 473.685C1405.19 470.512 1405.88 466.606 1405.88 461.966V360.545ZM1595.37 433.273C1595.37 449.134 1592.36 462.629 1586.35 473.756C1580.38 484.883 1572.24 493.382 1561.92 499.253C1551.64 505.077 1540.09 507.989 1527.26 507.989C1514.33 507.989 1502.73 505.053 1492.46 499.182C1482.18 493.311 1474.06 484.812 1468.1 473.685C1462.13 462.558 1459.15 449.087 1459.15 433.273C1459.15 417.411 1462.13 403.917 1468.1 392.79C1474.06 381.663 1482.18 373.187 1492.46 367.364C1502.73 361.492 1514.33 358.557 1527.26 358.557C1540.09 358.557 1551.64 361.492 1561.92 367.364C1572.24 373.187 1580.38 381.663 1586.35 392.79C1592.36 403.917 1595.37 417.411 1595.37 433.273ZM1564.19 433.273C1564.19 422.998 1562.65 414.333 1559.57 407.278C1556.54 400.223 1552.26 394.873 1546.72 391.227C1541.18 387.581 1534.69 385.759 1527.26 385.759C1519.82 385.759 1513.34 387.581 1507.8 391.227C1502.26 394.873 1497.95 400.223 1494.87 407.278C1491.84 414.333 1490.33 422.998 1490.33 433.273C1490.33 443.547 1491.84 452.212 1494.87 459.267C1497.95 466.322 1502.26 471.672 1507.8 475.318C1513.34 478.964 1519.82 480.787 1527.26 480.787C1534.69 480.787 1541.18 478.964 1546.72 475.318C1552.26 471.672 1556.54 466.322 1559.57 459.267C1562.65 452.212 1564.19 443.547 1564.19 433.273Z" fill="#3D5AFE"/>
</g>
<defs>
<clipPath id="clip0_1204_41">
<rect width="1995" height="612" fill="white"/>
</clipPath>
</defs>
</svg>
