<svg width="2072" height="636" viewBox="0 0 2072 636" fill="none" xmlns="http://www.w3.org/2000/svg">
  <path d="M14.8867 188.098C49.3184 188.098 82.3398 201.784 106.687 226.146C131.034 250.507 144.711 283.548 144.711 318C144.711 352.452 131.034 385.493 106.687 409.854C82.3398 434.216 49.3184 447.902 14.8867 447.902V534.503C14.8867 557.471 24.0053 579.498 40.2366 595.739C56.4678 611.98 78.4821 621.104 101.437 621.104H793.835C816.79 621.104 838.804 611.98 855.035 595.739C871.266 579.498 880.385 557.471 880.385 534.503V447.902C845.953 447.902 812.932 434.216 788.585 409.854C764.238 385.493 750.56 352.452 750.56 318C750.56 283.548 764.238 250.507 788.585 226.146C812.932 201.784 845.953 188.098 880.385 188.098V101.497C880.385 78.5289 871.266 56.5015 855.035 40.2607C838.804 24.0198 816.79 14.8958 793.835 14.8958H101.437C78.4821 14.8958 56.4678 24.0198 40.2366 40.2607C24.0053 56.5015 14.8867 78.5289 14.8867 101.497V188.098Z" fill="#DAE2FF" stroke="#3D5AFE" stroke-width="27" stroke-linecap="round" stroke-linejoin="round"/>
  <path opacity="0.989" fill-rule="evenodd" clip-rule="evenodd" d="M306.585 169.209C346.449 169.401 375.153 187.251 392.695 222.761C397.307 233.651 399.741 245.011 399.998 256.84C400.302 267.59 400.404 278.34 400.302 289.094C413.197 289.905 421.007 296.599 423.731 309.176C424.137 354.817 424.137 400.459 423.731 446.1C421.458 457.705 414.459 464.298 402.736 465.878C341.07 466.284 279.403 466.284 217.736 465.878C206.013 464.298 199.015 457.705 196.741 446.1C196.335 400.459 196.335 354.817 196.741 309.176C199.958 296.044 208.377 289.35 221.996 289.094C221.894 276.515 221.996 263.938 222.3 251.363C227.317 211.388 248.921 185.119 287.111 172.556C293.611 170.966 300.103 169.85 306.585 169.209ZM307.193 208.765C336.588 209.256 354.338 223.861 360.442 252.58C360.746 264.75 360.848 276.921 360.746 289.094C327.682 289.094 294.616 289.094 261.552 289.094C261.45 277.124 261.552 265.156 261.856 253.189C264.991 233.623 275.641 219.93 293.805 212.112C298.255 210.594 302.717 209.478 307.193 208.765ZM305.976 344.472C321.895 343.184 330.821 350.385 332.753 366.075C332.656 373.876 329.309 379.86 322.711 384.028C322.509 384.636 322.306 385.245 322.103 385.853C321.9 397.213 321.697 408.573 321.494 419.932C317.778 426.648 312.403 428.372 305.368 425.105C303.583 423.727 302.264 422.003 301.412 419.932C300.631 408.198 300.225 396.433 300.195 384.636C288.416 375.687 286.388 364.936 294.109 352.383C297.466 348.735 301.422 346.099 305.976 344.472Z" fill="#3D5AFE"/>
  <rect x="458" y="225" width="219" height="27" rx="10" fill="#3D5AFE"/>
  <rect x="458" y="385" width="219" height="27" rx="10" fill="#3D5AFE"/>
  <rect x="458" y="305" width="219" height="27" rx="10" fill="#3D5AFE"/>
  <path d="M1139.64 250V104.545H1197.88C1208.58 104.545 1217.51 106.132 1224.66 109.304C1231.81 112.476 1237.18 116.88 1240.78 122.514C1244.38 128.101 1246.18 134.541 1246.18 141.832C1246.18 147.514 1245.04 152.509 1242.77 156.818C1240.49 161.08 1237.37 164.583 1233.39 167.33C1229.46 170.028 1224.96 171.946 1219.9 173.082V174.503C1225.44 174.74 1230.62 176.302 1235.45 179.19C1240.33 182.079 1244.28 186.127 1247.31 191.335C1250.34 196.496 1251.86 202.652 1251.86 209.801C1251.86 217.519 1249.94 224.408 1246.11 230.469C1242.32 236.482 1236.71 241.241 1229.27 244.744C1221.84 248.248 1212.68 250 1201.79 250H1139.64ZM1170.39 224.858H1195.47C1204.04 224.858 1210.29 223.224 1214.22 219.957C1218.15 216.643 1220.11 212.24 1220.11 206.747C1220.11 202.723 1219.14 199.171 1217.2 196.094C1215.26 193.016 1212.49 190.601 1208.89 188.849C1205.34 187.098 1201.1 186.222 1196.18 186.222H1170.39V224.858ZM1170.39 165.412H1193.19C1197.41 165.412 1201.15 164.678 1204.41 163.21C1207.73 161.695 1210.33 159.564 1212.23 156.818C1214.17 154.072 1215.14 150.781 1215.14 146.946C1215.14 141.69 1213.27 137.453 1209.53 134.233C1205.84 131.013 1200.58 129.403 1193.76 129.403H1170.39V165.412ZM1271.3 250V140.909H1301.56V250H1271.3ZM1286.5 126.847C1282 126.847 1278.14 125.355 1274.92 122.372C1271.75 119.342 1270.16 115.72 1270.16 111.506C1270.16 107.339 1271.75 103.764 1274.92 100.781C1278.14 97.7509 1282 96.2358 1286.5 96.2358C1291 96.2358 1294.83 97.7509 1298 100.781C1301.22 103.764 1302.83 107.339 1302.83 111.506C1302.83 115.72 1301.22 119.342 1298 122.372C1294.83 125.355 1291 126.847 1286.5 126.847ZM1356.05 104.545V250H1325.79V104.545H1356.05ZM1410.54 104.545V250H1380.28V104.545H1410.54ZM1484.49 252.131C1473.27 252.131 1463.61 249.858 1455.52 245.312C1447.47 240.72 1441.26 234.233 1436.91 225.852C1432.55 217.424 1430.37 207.457 1430.37 195.952C1430.37 184.73 1432.55 174.882 1436.91 166.406C1441.26 157.931 1447.4 151.326 1455.3 146.591C1463.26 141.856 1472.58 139.489 1483.29 139.489C1490.48 139.489 1497.18 140.649 1503.38 142.969C1509.63 145.241 1515.08 148.674 1519.72 153.267C1524.41 157.86 1528.05 163.636 1530.66 170.597C1533.26 177.509 1534.56 185.606 1534.56 194.886V203.196H1442.45V184.446H1506.08C1506.08 180.09 1505.14 176.231 1503.24 172.869C1501.35 169.508 1498.72 166.88 1495.36 164.986C1492.04 163.045 1488.19 162.074 1483.78 162.074C1479.19 162.074 1475.12 163.139 1471.57 165.27C1468.06 167.353 1465.32 170.17 1463.33 173.722C1461.34 177.225 1460.32 181.132 1460.27 185.44V203.267C1460.27 208.665 1461.27 213.329 1463.26 217.259C1465.29 221.188 1468.16 224.219 1471.85 226.349C1475.54 228.48 1479.92 229.545 1484.99 229.545C1488.35 229.545 1491.43 229.072 1494.22 228.125C1497.02 227.178 1499.41 225.758 1501.4 223.864C1503.38 221.97 1504.9 219.65 1505.94 216.903L1533.92 218.75C1532.5 225.473 1529.59 231.345 1525.19 236.364C1520.83 241.335 1515.2 245.218 1508.29 248.011C1501.42 250.758 1493.49 252.131 1484.49 252.131ZM1612.33 140.909V163.636H1546.64V140.909H1612.33ZM1561.55 114.773H1591.81V216.477C1591.81 219.271 1592.23 221.449 1593.09 223.011C1593.94 224.527 1595.12 225.592 1596.64 226.207C1598.2 226.823 1600 227.131 1602.04 227.131C1603.46 227.131 1604.88 227.012 1606.3 226.776C1607.72 226.491 1608.81 226.278 1609.56 226.136L1614.32 248.651C1612.81 249.124 1610.68 249.669 1607.93 250.284C1605.18 250.947 1601.85 251.349 1597.92 251.491C1590.62 251.776 1584.23 250.805 1578.74 248.58C1573.29 246.354 1569.06 242.898 1566.03 238.21C1563 233.523 1561.51 227.604 1561.55 220.455V114.773ZM1690.07 140.909V163.636H1624.37V140.909H1690.07ZM1639.29 114.773H1669.54V216.477C1669.54 219.271 1669.97 221.449 1670.82 223.011C1671.67 224.527 1672.86 225.592 1674.37 226.207C1675.93 226.823 1677.73 227.131 1679.77 227.131C1681.19 227.131 1682.61 227.012 1684.03 226.776C1685.45 226.491 1686.54 226.278 1687.3 226.136L1692.06 248.651C1690.54 249.124 1688.41 249.669 1685.66 250.284C1682.92 250.947 1679.58 251.349 1675.65 251.491C1668.36 251.776 1661.97 250.805 1656.47 248.58C1651.03 246.354 1646.79 242.898 1643.76 238.21C1640.73 233.523 1639.24 227.604 1639.29 220.455V114.773ZM1758.32 252.131C1747.1 252.131 1737.44 249.858 1729.34 245.312C1721.29 240.72 1715.09 234.233 1710.74 225.852C1706.38 217.424 1704.2 207.457 1704.2 195.952C1704.2 184.73 1706.38 174.882 1710.74 166.406C1715.09 157.931 1721.22 151.326 1729.13 146.591C1737.09 141.856 1746.41 139.489 1757.11 139.489C1764.31 139.489 1771.01 140.649 1777.21 142.969C1783.46 145.241 1788.91 148.674 1793.55 153.267C1798.24 157.86 1801.88 163.636 1804.49 170.597C1807.09 177.509 1808.39 185.606 1808.39 194.886V203.196H1716.28V184.446H1779.91C1779.91 180.09 1778.96 176.231 1777.07 172.869C1775.18 169.508 1772.55 166.88 1769.19 164.986C1765.87 163.045 1762.01 162.074 1757.61 162.074C1753.02 162.074 1748.95 163.139 1745.39 165.27C1741.89 167.353 1739.14 170.17 1737.16 173.722C1735.17 177.225 1734.15 181.132 1734.1 185.44V203.267C1734.1 208.665 1735.1 213.329 1737.09 217.259C1739.12 221.188 1741.99 224.219 1745.68 226.349C1749.37 228.48 1753.75 229.545 1758.82 229.545C1762.18 229.545 1765.26 229.072 1768.05 228.125C1770.84 227.178 1773.24 225.758 1775.22 223.864C1777.21 221.97 1778.73 219.65 1779.77 216.903L1807.75 218.75C1806.33 225.473 1803.42 231.345 1799.02 236.364C1794.66 241.335 1789.03 245.218 1782.11 248.011C1775.25 250.758 1767.32 252.131 1758.32 252.131ZM1828.14 250V140.909H1857.47V159.943H1858.61C1860.59 153.172 1863.93 148.059 1868.62 144.602C1873.31 141.098 1878.7 139.347 1884.81 139.347C1886.33 139.347 1887.96 139.441 1889.71 139.631C1891.46 139.82 1893 140.08 1894.33 140.412V167.259C1892.91 166.832 1890.94 166.454 1888.43 166.122C1885.93 165.791 1883.63 165.625 1881.55 165.625C1877.09 165.625 1873.12 166.596 1869.61 168.537C1866.16 170.431 1863.41 173.082 1861.38 176.491C1859.39 179.901 1858.39 183.83 1858.39 188.281V250H1828.14ZM1909.97 250V140.909H1940.23V250H1909.97ZM1925.17 126.847C1920.67 126.847 1916.81 125.355 1913.59 122.372C1910.42 119.342 1908.84 115.72 1908.84 111.506C1908.84 107.339 1910.42 103.764 1913.59 100.781C1916.81 97.7509 1920.67 96.2358 1925.17 96.2358C1929.67 96.2358 1933.5 97.7509 1936.68 100.781C1939.9 103.764 1941.51 107.339 1941.51 111.506C1941.51 115.72 1939.9 119.342 1936.68 122.372C1933.5 125.355 1929.67 126.847 1925.17 126.847ZM2014.18 252.131C2002.96 252.131 1993.3 249.858 1985.2 245.312C1977.15 240.72 1970.95 234.233 1966.6 225.852C1962.24 217.424 1960.06 207.457 1960.06 195.952C1960.06 184.73 1962.24 174.882 1966.6 166.406C1970.95 157.931 1977.08 151.326 1984.99 146.591C1992.94 141.856 2002.27 139.489 2012.97 139.489C2020.17 139.489 2026.87 140.649 2033.07 142.969C2039.32 145.241 2044.77 148.674 2049.41 153.267C2054.1 157.86 2057.74 163.636 2060.35 170.597C2062.95 177.509 2064.25 185.606 2064.25 194.886V203.196H1972.13V184.446H2035.77C2035.77 180.09 2034.82 176.231 2032.93 172.869C2031.04 169.508 2028.41 166.88 2025.05 164.986C2021.73 163.045 2017.87 162.074 2013.47 162.074C2008.88 162.074 2004.81 163.139 2001.25 165.27C1997.75 167.353 1995 170.17 1993.02 173.722C1991.03 177.225 1990.01 181.132 1989.96 185.44V203.267C1989.96 208.665 1990.96 213.329 1992.94 217.259C1994.98 221.188 1997.85 224.219 2001.54 226.349C2005.23 228.48 2009.61 229.545 2014.68 229.545C2018.04 229.545 2021.12 229.072 2023.91 228.125C2026.7 227.178 2029.1 225.758 2031.08 223.864C2033.07 221.97 2034.59 219.65 2035.63 216.903L2063.61 218.75C2062.19 225.473 2059.28 231.345 2054.88 236.364C2050.52 241.335 2044.89 245.218 2037.97 248.011C2031.11 250.758 2023.18 252.131 2014.18 252.131Z" fill="#3D5AFE"/>
  <path d="M1405.88 360.545H1436.28V461.966C1436.28 471.341 1434.17 479.485 1429.96 486.398C1425.79 493.311 1419.99 498.637 1412.56 502.378C1405.12 506.118 1396.48 507.989 1386.63 507.989C1377.87 507.989 1369.92 506.45 1362.77 503.372C1355.67 500.247 1350.03 495.512 1345.87 489.168C1341.7 482.776 1339.64 474.75 1339.69 465.091H1370.3C1370.39 468.926 1371.17 472.217 1372.64 474.963C1374.16 477.662 1376.22 479.745 1378.82 481.213C1381.47 482.634 1384.6 483.344 1388.2 483.344C1391.98 483.344 1395.18 482.539 1397.78 480.929C1400.44 479.272 1402.45 476.857 1403.82 473.685C1405.19 470.512 1405.88 466.606 1405.88 461.966V360.545ZM1595.37 433.273C1595.37 449.134 1592.36 462.629 1586.35 473.756C1580.38 484.883 1572.24 493.382 1561.92 499.253C1551.64 505.077 1540.09 507.989 1527.26 507.989C1514.33 507.989 1502.73 505.053 1492.46 499.182C1482.18 493.311 1474.06 484.812 1468.1 473.685C1462.13 462.558 1459.15 449.087 1459.15 433.273C1459.15 417.411 1462.13 403.917 1468.1 392.79C1474.06 381.663 1482.18 373.187 1492.46 367.364C1502.73 361.492 1514.33 358.557 1527.26 358.557C1540.09 358.557 1551.64 361.492 1561.92 367.364C1572.24 373.187 1580.38 381.663 1586.35 392.79C1592.36 403.917 1595.37 417.411 1595.37 433.273ZM1564.19 433.273C1564.19 422.998 1562.65 414.333 1559.57 407.278C1556.54 400.223 1552.26 394.873 1546.72 391.227C1541.18 387.581 1534.69 385.759 1527.26 385.759C1519.82 385.759 1513.34 387.581 1507.8 391.227C1502.26 394.873 1497.95 400.223 1494.87 407.278C1491.84 414.333 1490.33 422.998 1490.33 433.273C1490.33 443.547 1491.84 452.212 1494.87 459.267C1497.95 466.322 1502.26 471.672 1507.8 475.318C1513.34 478.964 1519.82 480.787 1527.26 480.787C1534.69 480.787 1541.18 478.964 1546.72 475.318C1552.26 471.672 1556.54 466.322 1559.57 459.267C1562.65 452.212 1564.19 443.547 1564.19 433.273Z" fill="#3D5AFE"/>
  </svg>
  